<svg width="44" height="44" viewBox="0 0 44 44" fill="none" xmlns="http://www.w3.org/2000/svg">
<rect x="0.666504" y="0.333252" width="43.3333" height="43.3333" rx="21.6667" fill="#00C48C"/>
<path d="M20.6665 23.6666H12.3332C11.861 23.6666 11.4654 23.5066 11.1465 23.1866C10.8276 22.8666 10.6676 22.471 10.6665 21.9999C10.6654 21.5288 10.8254 21.1333 11.1465 20.8133C11.4676 20.4933 11.8632 20.3333 12.3332 20.3333H20.6665V11.9999C20.6665 11.5277 20.8265 11.1321 21.1465 10.8133C21.4665 10.4944 21.8621 10.3344 22.3332 10.3333C22.8043 10.3321 23.2004 10.4921 23.5215 10.8133C23.8426 11.1344 24.0021 11.5299 23.9998 11.9999V20.3333H32.3332C32.8054 20.3333 33.2015 20.4933 33.5215 20.8133C33.8415 21.1333 34.001 21.5288 33.9998 21.9999C33.9987 22.471 33.8387 22.8671 33.5198 23.1883C33.201 23.5094 32.8054 23.6688 32.3332 23.6666H23.9998V31.9999C23.9998 32.4721 23.8398 32.8683 23.5198 33.1883C23.1998 33.5083 22.8043 33.6677 22.3332 33.6666C21.8621 33.6655 21.4665 33.5055 21.1465 33.1866C20.8265 32.8677 20.6665 32.4721 20.6665 31.9999V23.6666Z" fill="white"/>
</svg>
