<svg width="26" height="15" viewBox="0 0 26 15" fill="none" xmlns="http://www.w3.org/2000/svg">
<path d="M20.3125 8.33341H5.6875C5.2325 8.33341 4.875 7.96675 4.875 7.50008C4.875 7.03341 5.2325 6.66675 5.6875 6.66675H20.3125C20.7675 6.66675 21.125 7.03341 21.125 7.50008C21.125 7.96675 20.7675 8.33341 20.3125 8.33341Z" fill="#777777"/>
<path d="M16.25 14.1667C16.1434 14.168 16.0378 14.1465 15.9398 14.1034C15.8419 14.0604 15.7538 13.9968 15.6813 13.9167C15.3563 13.5834 15.3563 13.0667 15.6813 12.7334L20.8 7.48338L15.6813 2.23338C15.3563 1.90005 15.3563 1.38338 15.6813 1.05005C16.0063 0.716715 16.51 0.716715 16.835 1.05005L22.5225 6.88338C22.8475 7.21672 22.8475 7.73338 22.5225 8.06672L16.835 13.9C16.6725 14.0667 16.4613 14.1501 16.2663 14.1501L16.25 14.1667Z" fill="#777777"/>
</svg>
