<svg width="73" height="41" viewBox="0 0 73 41" fill="none" xmlns="http://www.w3.org/2000/svg">
<path d="M57.0312 22.7778H15.9688C14.6912 22.7778 13.6875 21.7756 13.6875 20.5C13.6875 19.2245 14.6912 18.2222 15.9688 18.2222H57.0312C58.3088 18.2222 59.3125 19.2245 59.3125 20.5C59.3125 21.7756 58.3088 22.7778 57.0312 22.7778Z" fill="black"/>
<path d="M27.375 38.7222C27.0758 38.7259 26.7792 38.6669 26.5042 38.5493C26.2291 38.4316 25.9818 38.2577 25.7781 38.0389L9.80938 22.0944C8.89688 21.1833 8.89688 19.7711 9.80938 18.86L25.7781 2.9611C26.6906 2.04999 28.105 2.04999 29.0175 2.9611C29.93 3.87222 29.93 5.28444 29.0175 6.19555L14.6456 20.5455L29.0175 34.8955C29.93 35.8067 29.93 37.2189 29.0175 38.13C28.5613 38.5855 27.9681 38.8133 27.4206 38.8133L27.375 38.7222Z" fill="black"/>
</svg>
