<svg width="100" height="100" viewBox="0 0 100 100" fill="none" xmlns="http://www.w3.org/2000/svg">
<g clip-path="url(#clip0_63_8)">
<mask id="mask0_63_8" style="mask-type:luminance" maskUnits="userSpaceOnUse" x="0" y="0" width="100" height="100">
<path d="M0 0H100V100H0V0Z" fill="white"/>
</mask>
<g mask="url(#mask0_63_8)">
<path d="M12.3438 63.625C4.21875 55.5 4.21875 42.3437 12.3438 34.2188C20.4687 26.0938 33.625 26.0938 41.75 34.2188L45.5625 38.0312L16.1562 67.4375L12.3438 63.625ZM87.8125 63.625C95.9375 55.5 95.9375 42.3437 87.8125 34.2188C79.7188 26.0938 66.5312 26.0938 58.4062 34.2188L54.5937 38.0312L84 67.4375L87.8125 63.625Z" fill="#F9C23C"/>
<path d="M36.5624 58.4375C28.4374 66.5625 19.2499 70.5312 16.0312 67.3438C12.8437 64.125 16.8124 54.9375 24.9374 46.8125C33.0624 38.6875 42.2812 34.75 45.4687 37.9375C48.6562 41.125 44.6874 50.3125 36.5624 58.4375ZM63.6249 58.4375C71.7499 66.5625 80.9062 70.5625 84.1249 67.3438C87.3437 64.125 83.3437 54.9688 75.2187 46.8438C67.0937 38.7188 57.9062 34.75 54.7187 37.9375C51.5312 41.125 55.4999 50.3125 63.6249 58.4375Z" fill="#6D4534"/>
<path d="M38.2156 67.0969C38.2156 67.6853 37.9819 68.2497 37.5658 68.6658C37.1497 69.0819 36.5853 69.3156 35.9969 69.3156C35.4084 69.3156 34.8441 69.0819 34.428 68.6658C34.0119 68.2497 33.7781 67.6853 33.7781 67.0969C33.7781 66.5084 34.0119 65.9441 34.428 65.528C34.8441 65.1119 35.4084 64.8781 35.9969 64.8781C36.5853 64.8781 37.1497 65.1119 37.5658 65.528C37.9819 65.9441 38.2156 66.5084 38.2156 67.0969ZM26.5938 88.0313C27.1822 88.0313 27.7465 87.7975 28.1626 87.3814C28.5787 86.9653 28.8125 86.4009 28.8125 85.8125C28.8125 85.2241 28.5787 84.6597 28.1626 84.2436C27.7465 83.8275 27.1822 83.5938 26.5938 83.5938C26.0053 83.5938 25.441 83.8275 25.0249 84.2436C24.6088 84.6597 24.375 85.2241 24.375 85.8125C24.375 86.4009 24.6088 86.9653 25.0249 87.3814C25.441 87.7975 26.0053 88.0313 26.5938 88.0313ZM71.875 90.625C72.7038 90.625 73.4987 90.2958 74.0847 89.7097C74.6708 89.1237 75 88.3288 75 87.5C75 86.6712 74.6708 85.8763 74.0847 85.2903C73.4987 84.7042 72.7038 84.375 71.875 84.375C71.0462 84.375 70.2513 84.7042 69.6653 85.2903C69.0792 85.8763 68.75 86.6712 68.75 87.5C68.75 88.3288 69.0792 89.1237 69.6653 89.7097C70.2513 90.2958 71.0462 90.625 71.875 90.625Z" fill="#F9C23C"/>
<path d="M71.5308 46.0625C71.8102 46.1681 72.0657 46.3285 72.2821 46.5343C72.4985 46.7402 72.6715 46.9873 72.7909 47.2611C72.9103 47.5348 72.9737 47.8297 72.9774 48.1284C72.981 48.4271 72.9248 48.7234 72.8121 49C71.4683 52.4688 67.5308 57.125 66.9683 57.75C65.7642 59.2229 64.3735 60.4906 62.7965 61.5531C62.2791 63.4301 61.4726 65.215 60.4058 66.8438C59.7183 67.875 58.3121 68.1875 57.2808 67.5C56.7817 67.1707 56.4328 66.6577 56.3099 66.0725C56.187 65.4873 56.3001 64.8773 56.6246 64.375C56.7996 64.1083 56.9642 63.8365 57.1183 63.5594C55.7455 63.4852 54.4329 62.9714 53.3746 62.0938C52.1505 61.1516 51.3418 59.7695 51.1201 58.2409C50.8984 56.7122 51.2811 55.1573 52.1871 53.9063C54.1246 51.25 57.8433 50.6563 60.4996 52.5938L60.5621 52.6563C61.611 53.3734 62.4218 54.3876 62.8902 55.5688C63.109 55.3354 63.3225 55.0938 63.5308 54.8438C63.5329 54.8292 63.5381 54.8188 63.5465 54.8125C63.5548 54.8063 63.56 54.7958 63.5621 54.7813C64.6558 53.5313 67.7183 49.7188 68.6246 47.3438C68.841 46.7892 69.2683 46.3429 69.813 46.1028C70.3578 45.8626 70.9754 45.8482 71.5308 46.0625ZM58.8121 58.6813C58.9933 57.2 58.4871 56.675 57.9371 56.2813L57.8746 56.2188C57.6464 56.0441 57.3709 55.9421 57.0839 55.9262C56.797 55.9102 56.5119 55.9811 56.2657 56.1294C56.0196 56.2778 55.8238 56.4968 55.7039 56.758C55.584 57.0192 55.5454 57.3104 55.5933 57.5938C55.6558 57.9688 55.8433 58.3125 56.1558 58.5313C56.2183 58.5771 56.2767 58.626 56.3308 58.6781C56.8621 59.0531 57.5277 59.2844 58.8121 58.6813ZM50.0152 93.75C51.7496 93.75 53.1558 92.35 53.1558 90.625C53.1558 88.9 51.7496 87.5 50.0152 87.5C48.2808 87.5 46.8746 88.9 46.8746 90.625C46.8746 92.35 48.2808 93.75 50.0152 93.75ZM13.8121 82.75C16.308 80.6188 18.3557 78.013 19.8363 75.084C21.3169 72.155 22.2009 68.961 22.4371 65.6875C22.7808 61.125 21.8746 56.6875 19.9058 52.7188C20.9683 51.2188 22.2496 49.75 23.6246 48.2813C26.8121 53.5938 28.3121 59.7813 27.8433 66.0938C27.5503 70.0745 26.4715 73.9578 24.6693 77.5193C22.8671 81.0808 20.3772 84.2499 17.3433 86.8438C16.8433 87.2813 16.2183 87.5 15.5933 87.5C14.8121 87.5 14.0621 87.1875 13.5308 86.5625C13.0665 86.0179 12.8356 85.3122 12.8882 84.5985C12.9409 83.8847 13.2728 83.2205 13.8121 82.75Z" fill="#00A6ED"/>
<path d="M47.5625 69.25C47.375 70.9062 48.25 72.5 49.75 73.2188C51.0938 73.875 51.6562 75.4688 51 76.7812C50.5625 77.7812 49.5938 78.3438 48.5625 78.3438C48.1875 78.3438 47.7812 78.2812 47.4062 78.0938C45.6418 77.2654 44.1842 75.9008 43.2414 74.1947C42.2986 72.4887 41.9188 70.5284 42.1562 68.5938L42.9062 62.5625C43.0625 61.4375 42.7188 60.3438 41.9375 59.5C41.1562 58.6563 40.1562 58.25 38.9688 58.25L37.2812 58.2812C33.875 58.4062 30.625 56.5313 28.9375 53.5L25.1562 46.625C26.5312 45.25 27.9375 44.0625 29.3125 42.9688L33.6563 50.875C34.375 52.1563 35.6875 52.9688 37.1562 52.875L38.875 52.8438C41.5 52.7812 44.1562 53.875 45.9688 55.875C47.7812 57.875 48.625 60.5312 48.3125 63.2187L47.5625 69.25ZM81.8438 85.8125C81.125 85.8125 80.4062 85.5 79.875 84.9375C71.5312 75.9375 71.9688 61.9062 80.75 53.4062C81.9375 55.125 82.9062 56.7812 83.625 58.3438C77.875 64.8438 77.8125 74.7812 83.8437 81.2812C84.8437 82.375 84.7812 84.0625 83.6875 85.0938C83.1562 85.5625 82.5 85.8125 81.8438 85.8125ZM31.9375 93.375C32.3438 93.6875 32.8437 93.8438 33.3438 93.8438C34.0938 93.8438 34.8125 93.5 35.3125 92.8437C39.4688 87.0937 40.3437 79.7812 37.5937 73.25C37.4709 72.9584 37.2917 72.6939 37.0665 72.4717C36.8413 72.2494 36.5745 72.0738 36.2814 71.9548C35.9882 71.8357 35.6744 71.7757 35.358 71.7781C35.0416 71.7805 34.7288 71.8453 34.4375 71.9688C33.8541 72.2234 33.3935 72.6961 33.154 73.2859C32.9146 73.8757 32.9154 74.5358 33.1562 75.125C34.1719 77.5449 34.5444 80.1863 34.2378 82.7927C33.9312 85.3991 32.9557 87.8819 31.4062 90C30.625 91.0937 30.875 92.5937 31.9375 93.375ZM60.9688 79.3406C61.6732 79.3406 62.3489 79.0608 62.847 78.5626C63.3451 78.0645 63.625 77.3889 63.625 76.6844C63.625 75.9799 63.3451 75.3043 62.847 74.8061C62.3489 74.308 61.6732 74.0281 60.9688 74.0281C60.2643 74.0281 59.5886 74.308 59.0905 74.8061C58.5924 75.3043 58.3125 75.9799 58.3125 76.6844C58.3125 77.3889 58.5924 78.0645 59.0905 78.5626C59.5886 79.0608 60.2643 79.3406 60.9688 79.3406Z" fill="#F70A8D"/>
</g>
</g>
<defs>
<clipPath id="clip0_63_8">
<rect width="100" height="100" fill="white"/>
</clipPath>
</defs>
</svg>
