<svg width="24" height="25" viewBox="0 0 24 25" fill="none" xmlns="http://www.w3.org/2000/svg">
<path d="M5 3.5H11C11.7956 3.5 12.5587 3.81607 13.1213 4.37868C13.6839 4.94129 14 5.70435 14 6.5V10.5H13V6.5C13 5.96957 12.7893 5.46086 12.4142 5.08579C12.0391 4.71071 11.5304 4.5 11 4.5H5C4.46957 4.5 3.96086 4.71071 3.58579 5.08579C3.21071 5.46086 3 5.96957 3 6.5V19.5C3 20.0304 3.21071 20.5391 3.58579 20.9142C3.96086 21.2893 4.46957 21.5 5 21.5H11C11.5304 21.5 12.0391 21.2893 12.4142 20.9142C12.7893 20.5391 13 20.0304 13 19.5V15.5H14V19.5C14 20.2956 13.6839 21.0587 13.1213 21.6213C12.5587 22.1839 11.7956 22.5 11 22.5H5C4.20435 22.5 3.44129 22.1839 2.87868 21.6213C2.31607 21.0587 2 20.2956 2 19.5V6.5C2 5.70435 2.31607 4.94129 2.87868 4.37868C3.44129 3.81607 4.20435 3.5 5 3.5ZM8 12.5H19.25L16 9.25L16.66 8.5L21.16 13L16.66 17.5L16 16.75L19.25 13.5H8V12.5Z" fill="#454545"/>
</svg>
