<svg width="49" height="48" viewBox="0 0 49 48" fill="none" xmlns="http://www.w3.org/2000/svg">
<path d="M10.5 6H22.5C24.0913 6 25.6174 6.63214 26.7426 7.75736C27.8679 8.88258 28.5 10.4087 28.5 12V20H26.5V12C26.5 10.9391 26.0786 9.92172 25.3284 9.17157C24.5783 8.42143 23.5609 8 22.5 8H10.5C9.43913 8 8.42172 8.42143 7.67157 9.17157C6.92143 9.92172 6.5 10.9391 6.5 12V38C6.5 39.0609 6.92143 40.0783 7.67157 40.8284C8.42172 41.5786 9.43913 42 10.5 42H22.5C23.5609 42 24.5783 41.5786 25.3284 40.8284C26.0786 40.0783 26.5 39.0609 26.5 38V30H28.5V38C28.5 39.5913 27.8679 41.1174 26.7426 42.2426C25.6174 43.3679 24.0913 44 22.5 44H10.5C8.9087 44 7.38258 43.3679 6.25736 42.2426C5.13214 41.1174 4.5 39.5913 4.5 38V12C4.5 10.4087 5.13214 8.88258 6.25736 7.75736C7.38258 6.63214 8.9087 6 10.5 6ZM16.5 24H39L32.5 17.5L33.82 16L42.82 25L33.82 34L32.5 32.5L39 26H16.5V24Z" fill="#454545"/>
</svg>
