<svg width="24" height="25" viewBox="0 0 24 25" fill="none" xmlns="http://www.w3.org/2000/svg">
<path d="M10.66 11.1599C10.3032 11.5148 10.1018 11.9967 10.1 12.4999C10.1 13.0038 10.3002 13.4871 10.6565 13.8434C11.0128 14.1997 11.4961 14.3999 12 14.3999C12.5032 14.3981 12.9851 14.1967 13.34 13.8399" stroke="#454545" stroke-width="1.5" stroke-linecap="round" stroke-linejoin="round"/>
<path d="M12.0001 6.80005C10.8727 6.80005 9.77066 7.13435 8.8333 7.76067C7.89594 8.387 7.16536 9.27721 6.73394 10.3188C6.30252 11.3603 6.18964 12.5064 6.40958 13.6121C6.62951 14.7178 7.17238 15.7334 7.96954 16.5306C8.7667 17.3277 9.78235 17.8706 10.888 18.0905C11.9937 18.3105 13.1398 18.1976 14.1813 17.7662C15.2229 17.3347 16.1131 16.6042 16.7394 15.6668C17.3658 14.7294 17.7001 13.6274 17.7001 12.5" stroke="#454545" stroke-width="1.5" stroke-linecap="round" stroke-linejoin="round"/>
<path d="M12 3C10.1211 3 8.28435 3.55717 6.72209 4.60104C5.15982 5.64491 3.94218 7.12861 3.22315 8.86451C2.50412 10.6004 2.31598 12.5105 2.68254 14.3534C3.0491 16.1962 3.95389 17.8889 5.28249 19.2175C6.61109 20.5461 8.30383 21.4509 10.1466 21.8175C11.9895 22.184 13.8996 21.9959 15.6355 21.2769C17.3714 20.5578 18.8551 19.3402 19.899 17.7779C20.9428 16.2157 21.5 14.3789 21.5 12.5M15.525 8.976L12.95 11.55" stroke="#454545" stroke-width="1.5" stroke-linecap="round" stroke-linejoin="round"/>
<path d="M20.94 6.34409L17.7 6.8001L18.156 3.56009C18.1593 3.52246 18.1514 3.48469 18.1331 3.45159C18.1149 3.4185 18.0872 3.39159 18.0536 3.37431C18.02 3.35703 17.982 3.35016 17.9445 3.35457C17.907 3.35899 17.8716 3.37449 17.843 3.39909L15.695 5.53609C15.4743 5.75832 15.3121 6.03162 15.2226 6.3317C15.1331 6.63178 15.1191 6.94933 15.182 7.2561L15.524 8.97609L17.244 9.3171C17.5507 9.37995 17.8683 9.366 18.1684 9.2765C18.4684 9.187 18.7418 9.02472 18.964 8.80409L21.1 6.6571C21.1247 6.62836 21.1402 6.59291 21.1446 6.55528C21.149 6.51764 21.142 6.47956 21.1246 6.44591C21.1072 6.41227 21.0801 6.3846 21.0469 6.36645C21.0136 6.34831 20.9757 6.34052 20.938 6.34409" stroke="#454545" stroke-width="1.5" stroke-linecap="round" stroke-linejoin="round"/>
</svg>
