<svg width="24" height="25" viewBox="0 0 24 25" fill="none" xmlns="http://www.w3.org/2000/svg">
<path d="M19.318 14H15.443C14.9293 13.9995 14.4364 14.2027 14.0724 14.565C13.7083 14.9274 13.5029 15.4193 13.501 15.933V19.808C13.5007 20.0631 13.5508 20.3158 13.6483 20.5515C13.7458 20.7872 13.8888 21.0014 14.0692 21.1818C14.2496 21.3622 14.4638 21.5052 14.6995 21.6027C14.9353 21.7002 15.1879 21.7503 15.443 21.75H19.318C19.8315 21.7479 20.3232 21.5423 20.6853 21.1783C21.0475 20.8142 21.2505 20.3215 21.25 19.808V15.933C21.2503 15.6792 21.2005 15.4279 21.1035 15.1933C21.0065 14.9588 20.8642 14.7457 20.6847 14.5663C20.5053 14.3868 20.2922 14.2445 20.0577 14.1475C19.8231 14.0505 19.5718 14.0007 19.318 14.001M8.557 14H4.682C4.16859 14.0029 3.67721 14.2089 3.3152 14.573C2.95319 14.937 2.74999 15.4296 2.75 15.943V19.818C2.74974 20.0718 2.79953 20.3231 2.89653 20.5577C2.99353 20.7922 3.13583 21.0053 3.31528 21.1847C3.49474 21.3642 3.70783 21.5065 3.94235 21.6035C4.17687 21.7005 4.42821 21.7503 4.682 21.75H8.557C9.07048 21.7505 9.56324 21.5475 9.92726 21.1853C10.2913 20.8232 10.4969 20.3315 10.499 19.818V15.943C10.4993 15.6879 10.4492 15.4353 10.3517 15.1995C10.2542 14.9638 10.1112 14.7496 9.93079 14.5692C9.75041 14.3888 9.53622 14.2458 9.30048 14.1483C9.06475 14.0508 8.8121 14.0007 8.557 14.001M8.557 3.25H4.682C4.42821 3.24974 4.17687 3.29953 3.94235 3.39653C3.70783 3.49353 3.49474 3.63583 3.31528 3.81528C3.13583 3.99474 2.99353 4.20783 2.89653 4.44235C2.79953 4.67687 2.74974 4.92821 2.75 5.182V9.057C2.74947 9.57048 2.95253 10.0632 3.31468 10.4273C3.67683 10.7913 4.16852 10.9969 4.682 10.999H8.557C8.8121 10.9993 9.06475 10.9492 9.30048 10.8517C9.53622 10.7542 9.75041 10.6112 9.93079 10.4308C10.1112 10.2504 10.2542 10.0362 10.3517 9.80048C10.4492 9.56475 10.4993 9.3121 10.499 9.057V5.182C10.4969 4.66852 10.2913 4.17683 9.92726 3.81468C9.56324 3.45253 9.07048 3.24947 8.557 3.25ZM19.318 3.25H15.443C14.9295 3.24947 14.4368 3.45253 14.0727 3.81468C13.7087 4.17683 13.5031 4.66852 13.501 5.182V9.057C13.5013 9.57197 13.706 10.0658 14.0701 10.4299C14.4342 10.794 14.928 10.9987 15.443 10.999H19.318C19.8315 10.9969 20.3232 10.7913 20.6853 10.4273C21.0475 10.0632 21.2505 9.57048 21.25 9.057V5.182C21.2503 4.92821 21.2005 4.67687 21.1035 4.44235C21.0065 4.20783 20.8642 3.99474 20.6847 3.81528C20.5053 3.63583 20.2922 3.49353 20.0577 3.39653C19.8231 3.29953 19.5718 3.24974 19.318 3.25Z" stroke="#545454" stroke-width="1.5" stroke-linecap="round" stroke-linejoin="round"/>
</svg>
