<svg width="40" height="40" viewBox="0 0 40 40" fill="none" xmlns="http://www.w3.org/2000/svg">
<path fill-rule="evenodd" clip-rule="evenodd" d="M8.33305 14.9999C8.33305 11.9057 9.56222 8.93826 11.7501 6.75034C13.9381 4.56242 16.9055 3.33325 19.9997 3.33325C23.0939 3.33325 26.0614 4.56242 28.2493 6.75034C30.4372 8.93826 31.6664 11.9057 31.6664 14.9999V21.2733L34.7031 27.3466C34.8428 27.6261 34.9089 27.9367 34.8948 28.249C34.8808 28.5612 34.7871 28.8646 34.6228 29.1305C34.4585 29.3963 34.2289 29.6158 33.9559 29.7679C33.683 29.9201 33.3756 30 33.0631 29.9999H26.4564C26.0857 31.4303 25.2504 32.6971 24.0818 33.6015C22.9132 34.5058 21.4774 34.9965 19.9997 34.9965C18.5221 34.9965 17.0862 34.5058 15.9176 33.6015C14.749 32.6971 13.9138 31.4303 13.5431 29.9999H6.93639C6.62385 30 6.31649 29.9201 6.0435 29.7679C5.77051 29.6158 5.54095 29.3963 5.37663 29.1305C5.21231 28.8646 5.11868 28.5612 5.10464 28.249C5.09059 27.9367 5.1566 27.6261 5.29639 27.3466L8.33305 21.2733V14.9999ZM17.1131 29.9999C17.4056 30.5066 17.8264 30.9274 18.3331 31.2199C18.8398 31.5124 19.4146 31.6664 19.9997 31.6664C20.5848 31.6664 21.1596 31.5124 21.6663 31.2199C22.173 30.9274 22.5938 30.5066 22.8864 29.9999H17.1131ZM19.9997 6.66659C17.7896 6.66659 15.67 7.54456 14.1072 9.10736C12.5444 10.6702 11.6664 12.7898 11.6664 14.9999V21.2733C11.6664 21.7905 11.546 22.3006 11.3147 22.7633L9.36472 26.6666H30.6364L28.6864 22.7633C28.4546 22.3007 28.3336 21.7906 28.3331 21.2733V14.9999C28.3331 12.7898 27.4551 10.6702 25.8923 9.10736C24.3295 7.54456 22.2099 6.66659 19.9997 6.66659Z" fill="#545454"/>
</svg>
