<svg width="24" height="25" viewBox="0 0 24 25" fill="none" xmlns="http://www.w3.org/2000/svg">
<path d="M21.7101 9.20993C22.9601 7.95993 22.3901 6.49993 21.7101 5.78993L18.7101 2.78993C17.4501 1.53993 16.0001 2.10993 15.2901 2.78993L13.5901 4.49993H11.0001C9.10005 4.49993 8.00005 5.49993 7.44005 6.64993L3.00005 11.0899V15.0899L2.29005 15.7899C1.04005 17.0499 1.61005 18.4999 2.29005 19.2099L5.29005 22.2099C5.83005 22.7499 6.41005 22.9499 6.96005 22.9499C7.67005 22.9499 8.32005 22.5999 8.71005 22.2099L11.4101 19.4999H15.0001C16.7001 19.4999 17.5601 18.4399 17.8701 17.3999C19.0001 17.0999 19.6201 16.2399 19.8701 15.3999C21.4201 14.9999 22.0001 13.5299 22.0001 12.4999V9.49993H21.4101L21.7101 9.20993ZM20.0001 12.4999C20.0001 12.9499 19.8101 13.4999 19.0001 13.4999H18.0001V14.4999C18.0001 14.9499 17.8101 15.4999 17.0001 15.4999H16.0001V16.4999C16.0001 16.9499 15.8101 17.4999 15.0001 17.4999H10.5901L7.31005 20.7799C7.00005 21.0699 6.82005 20.8999 6.71005 20.7899L3.72005 17.8099C3.43005 17.4999 3.60005 17.3199 3.71005 17.2099L5.00005 15.9099V11.9099L7.00005 9.90993V11.4999C7.00005 12.7099 7.80005 14.4999 10.0001 14.4999C12.2001 14.4999 13.0001 12.7099 13.0001 11.4999H20.0001V12.4999ZM20.2901 7.78993L18.5901 9.49993H11.0001V11.4999C11.0001 11.9499 10.8101 12.4999 10.0001 12.4999C9.19005 12.4999 9.00005 11.9499 9.00005 11.4999V8.49993C9.00005 8.03993 9.17005 6.49993 11.0001 6.49993H14.4101L16.6901 4.21993C17.0001 3.92993 17.1801 4.09993 17.2901 4.20993L20.2801 7.18993C20.5701 7.49993 20.4001 7.67993 20.2901 7.78993Z" fill="#454545"/>
</svg>
